<svg width="20" height="20" viewBox="0 0 20 20" fill="none" xmlns="http://www.w3.org/2000/svg">
<path d="M0 16.6667V14.3542C0 13.8819 0.118056 13.4444 0.354167 13.0417C0.590278 12.6389 0.916667 12.3333 1.33333 12.125C1.52778 12.0278 1.71528 11.9375 1.89583 11.8542C2.09028 11.7708 2.29167 11.6944 2.5 11.625V16.6667H0ZM3.33333 10.8333C2.63889 10.8333 2.04861 10.5903 1.5625 10.1042C1.07639 9.61805 0.833333 9.02777 0.833333 8.33333C0.833333 7.63888 1.07639 7.04861 1.5625 6.56249C2.04861 6.07638 2.63889 5.83333 3.33333 5.83333C4.02778 5.83333 4.61806 6.07638 5.10417 6.56249C5.59028 7.04861 5.83333 7.63888 5.83333 8.33333C5.83333 9.02777 5.59028 9.61805 5.10417 10.1042C4.61806 10.5903 4.02778 10.8333 3.33333 10.8333ZM3.33333 9.16666C3.56944 9.16666 3.76389 9.09027 3.91667 8.9375C4.08333 8.77083 4.16667 8.56944 4.16667 8.33333C4.16667 8.09722 4.08333 7.90277 3.91667 7.75C3.76389 7.58333 3.56944 7.49999 3.33333 7.49999C3.09722 7.49999 2.89583 7.58333 2.72917 7.75C2.57639 7.90277 2.5 8.09722 2.5 8.33333C2.5 8.56944 2.57639 8.77083 2.72917 8.9375C2.89583 9.09027 3.09722 9.16666 3.33333 9.16666ZM3.33333 16.6667V14.3333C3.33333 13.8611 3.45139 13.4306 3.6875 13.0417C3.9375 12.6389 4.26389 12.3333 4.66667 12.125C5.52778 11.6944 6.40278 11.375 7.29167 11.1667C8.18056 10.9444 9.08333 10.8333 10 10.8333C10.9167 10.8333 11.8194 10.9444 12.7083 11.1667C13.5972 11.375 14.4722 11.6944 15.3333 12.125C15.7361 12.3333 16.0556 12.6389 16.2917 13.0417C16.5417 13.4306 16.6667 13.8611 16.6667 14.3333V16.6667H3.33333ZM5 15H15V14.3333C15 14.1806 14.9583 14.0417 14.875 13.9167C14.8056 13.7917 14.7083 13.6944 14.5833 13.625C13.8333 13.25 13.0764 12.9722 12.3125 12.7917C11.5486 12.5972 10.7778 12.5 10 12.5C9.22222 12.5 8.45139 12.5972 7.6875 12.7917C6.92361 12.9722 6.16667 13.25 5.41667 13.625C5.29167 13.6944 5.1875 13.7917 5.10417 13.9167C5.03472 14.0417 5 14.1806 5 14.3333V15ZM10 10C9.08333 10 8.29861 9.67361 7.64583 9.02083C6.99306 8.36805 6.66667 7.58333 6.66667 6.66666C6.66667 5.74999 6.99306 4.96527 7.64583 4.3125C8.29861 3.65972 9.08333 3.33333 10 3.33333C10.9167 3.33333 11.7014 3.65972 12.3542 4.3125C13.0069 4.96527 13.3333 5.74999 13.3333 6.66666C13.3333 7.58333 13.0069 8.36805 12.3542 9.02083C11.7014 9.67361 10.9167 10 10 10ZM10 8.33333C10.4583 8.33333 10.8472 8.17361 11.1667 7.85416C11.5 7.52083 11.6667 7.125 11.6667 6.66666C11.6667 6.20833 11.5 5.81944 11.1667 5.5C10.8472 5.16666 10.4583 4.99999 10 4.99999C9.54167 4.99999 9.14583 5.16666 8.8125 5.5C8.49306 5.81944 8.33333 6.20833 8.33333 6.66666C8.33333 7.125 8.49306 7.52083 8.8125 7.85416C9.14583 8.17361 9.54167 8.33333 10 8.33333ZM16.6667 10.8333C15.9722 10.8333 15.3819 10.5903 14.8958 10.1042C14.4097 9.61805 14.1667 9.02777 14.1667 8.33333C14.1667 7.63888 14.4097 7.04861 14.8958 6.56249C15.3819 6.07638 15.9722 5.83333 16.6667 5.83333C17.3611 5.83333 17.9514 6.07638 18.4375 6.56249C18.9236 7.04861 19.1667 7.63888 19.1667 8.33333C19.1667 9.02777 18.9236 9.61805 18.4375 10.1042C17.9514 10.5903 17.3611 10.8333 16.6667 10.8333ZM16.6667 9.16666C16.9028 9.16666 17.0972 9.09027 17.25 8.9375C17.4167 8.77083 17.5 8.56944 17.5 8.33333C17.5 8.09722 17.4167 7.90277 17.25 7.75C17.0972 7.58333 16.9028 7.49999 16.6667 7.49999C16.4306 7.49999 16.2292 7.58333 16.0625 7.75C15.9097 7.90277 15.8333 8.09722 15.8333 8.33333C15.8333 8.56944 15.9097 8.77083 16.0625 8.9375C16.2292 9.09027 16.4306 9.16666 16.6667 9.16666ZM17.5 16.6667V11.625C17.7083 11.6944 17.9028 11.7708 18.0833 11.8542C18.2778 11.9375 18.4722 12.0278 18.6667 12.125C19.0833 12.3333 19.4097 12.6389 19.6458 13.0417C19.8819 13.4444 20 13.8819 20 14.3542V16.6667H17.5Z" fill="#1D1B20"/>
</svg>
