<svg width="20" height="20" viewBox="0 0 20 20" fill="none" xmlns="http://www.w3.org/2000/svg">
<g clip-path="url(#clip0_22_91)">
<path d="M14.5837 5.41666H14.592M5.83366 1.66666H14.167C16.4682 1.66666 18.3337 3.53214 18.3337 5.83333V14.1667C18.3337 16.4679 16.4682 18.3333 14.167 18.3333H5.83366C3.53247 18.3333 1.66699 16.4679 1.66699 14.1667V5.83333C1.66699 3.53214 3.53247 1.66666 5.83366 1.66666ZM13.3337 9.475C13.4365 10.1685 13.318 10.8768 12.9951 11.4992C12.6722 12.1215 12.1613 12.6262 11.535 12.9414C10.9087 13.2566 10.199 13.3663 9.50681 13.2549C8.8146 13.1436 8.17513 12.8167 7.67936 12.321C7.18359 11.8252 6.85677 11.1857 6.74538 10.4935C6.63399 9.80129 6.74371 9.09158 7.05893 8.46531C7.37415 7.83904 7.87881 7.32811 8.50115 7.0052C9.12348 6.68228 9.83179 6.56382 10.5253 6.66666C11.2328 6.77157 11.8877 7.10122 12.3934 7.60692C12.8991 8.11262 13.2288 8.76756 13.3337 9.475Z" stroke="#1D1B20" stroke-width="3" stroke-linecap="round" stroke-linejoin="round"/>
</g>
<defs>
<clipPath id="clip0_22_91">
<rect width="20" height="20" fill="white"/>
</clipPath>
</defs>
</svg>
