<svg width="20" height="20" viewBox="0 0 20 20" fill="none" xmlns="http://www.w3.org/2000/svg">
<path d="M10.0003 18.3333C8.86144 18.3333 7.78505 18.1146 6.77116 17.6771C5.75727 17.2396 4.87185 16.6424 4.11491 15.8854C3.35796 15.1285 2.76074 14.2431 2.32324 13.2292C1.88574 12.2153 1.66699 11.1389 1.66699 10C1.66699 8.84723 1.88574 7.76737 2.32324 6.76042C2.76074 5.75348 3.35796 4.87153 4.11491 4.11459C4.87185 3.35764 5.75727 2.76042 6.77116 2.32292C7.78505 1.88542 8.86144 1.66667 10.0003 1.66667C11.1531 1.66667 12.233 1.88542 13.2399 2.32292C14.2469 2.76042 15.1288 3.35764 15.8857 4.11459C16.6427 4.87153 17.2399 5.75348 17.6774 6.76042C18.1149 7.76737 18.3337 8.84723 18.3337 10C18.3337 11.1389 18.1149 12.2153 17.6774 13.2292C17.2399 14.2431 16.6427 15.1285 15.8857 15.8854C15.1288 16.6424 14.2469 17.2396 13.2399 17.6771C12.233 18.1146 11.1531 18.3333 10.0003 18.3333ZM10.0003 16.625C10.3614 16.125 10.6739 15.6042 10.9378 15.0625C11.2017 14.5208 11.417 13.9445 11.5837 13.3333H8.41699C8.58366 13.9445 8.79894 14.5208 9.06283 15.0625C9.32671 15.6042 9.63921 16.125 10.0003 16.625ZM7.83366 16.2917C7.58366 15.8333 7.36491 15.3576 7.17741 14.8646C6.98991 14.3715 6.83366 13.8611 6.70866 13.3333H4.25033C4.6531 14.0278 5.15658 14.632 5.76074 15.1458C6.36491 15.6597 7.05588 16.0417 7.83366 16.2917ZM12.167 16.2917C12.9448 16.0417 13.6357 15.6597 14.2399 15.1458C14.8441 14.632 15.3475 14.0278 15.7503 13.3333H13.292C13.167 13.8611 13.0107 14.3715 12.8232 14.8646C12.6357 15.3576 12.417 15.8333 12.167 16.2917ZM3.54199 11.6667H6.37533C6.33366 11.3889 6.30241 11.1146 6.28158 10.8438C6.26074 10.5729 6.25033 10.2917 6.25033 10C6.25033 9.70834 6.26074 9.42709 6.28158 9.15626C6.30241 8.88542 6.33366 8.61112 6.37533 8.33334H3.54199C3.47255 8.61112 3.42046 8.88542 3.38574 9.15626C3.35102 9.42709 3.33366 9.70834 3.33366 10C3.33366 10.2917 3.35102 10.5729 3.38574 10.8438C3.42046 11.1146 3.47255 11.3889 3.54199 11.6667ZM8.04199 11.6667H11.9587C12.0003 11.3889 12.0316 11.1146 12.0524 10.8438C12.0732 10.5729 12.0837 10.2917 12.0837 10C12.0837 9.70834 12.0732 9.42709 12.0524 9.15626C12.0316 8.88542 12.0003 8.61112 11.9587 8.33334H8.04199C8.00033 8.61112 7.96908 8.88542 7.94824 9.15626C7.92741 9.42709 7.91699 9.70834 7.91699 10C7.91699 10.2917 7.92741 10.5729 7.94824 10.8438C7.96908 11.1146 8.00033 11.3889 8.04199 11.6667ZM13.6253 11.6667H16.4587C16.5281 11.3889 16.5802 11.1146 16.6149 10.8438C16.6496 10.5729 16.667 10.2917 16.667 10C16.667 9.70834 16.6496 9.42709 16.6149 9.15626C16.5802 8.88542 16.5281 8.61112 16.4587 8.33334H13.6253C13.667 8.61112 13.6982 8.88542 13.7191 9.15626C13.7399 9.42709 13.7503 9.70834 13.7503 10C13.7503 10.2917 13.7399 10.5729 13.7191 10.8438C13.6982 11.1146 13.667 11.3889 13.6253 11.6667ZM13.292 6.66667H15.7503C15.3475 5.97223 14.8441 5.36806 14.2399 4.85417C13.6357 4.34028 12.9448 3.95834 12.167 3.70834C12.417 4.16667 12.6357 4.64237 12.8232 5.13542C13.0107 5.62848 13.167 6.13889 13.292 6.66667ZM8.41699 6.66667H11.5837C11.417 6.05556 11.2017 5.47917 10.9378 4.93751C10.6739 4.39584 10.3614 3.87501 10.0003 3.37501C9.63921 3.87501 9.32671 4.39584 9.06283 4.93751C8.79894 5.47917 8.58366 6.05556 8.41699 6.66667ZM4.25033 6.66667H6.70866C6.83366 6.13889 6.98991 5.62848 7.17741 5.13542C7.36491 4.64237 7.58366 4.16667 7.83366 3.70834C7.05588 3.95834 6.36491 4.34028 5.76074 4.85417C5.15658 5.36806 4.6531 5.97223 4.25033 6.66667Z" fill="#1D1B20"/>
</svg>
