<svg width="20" height="20" viewBox="0 0 20 20" fill="none" xmlns="http://www.w3.org/2000/svg">
<path d="M10.0003 18.3333C9.80588 18.3333 9.63921 18.2778 9.50033 18.1667C9.36144 18.0556 9.25727 17.9097 9.18783 17.7292C8.92394 16.9514 8.5906 16.2222 8.18783 15.5417C7.79894 14.8611 7.25033 14.0625 6.54199 13.1458C5.83366 12.2292 5.25727 11.3542 4.81283 10.5208C4.38227 9.6875 4.16699 8.68056 4.16699 7.5C4.16699 5.875 4.72949 4.5 5.85449 3.375C6.99338 2.23612 8.37533 1.66667 10.0003 1.66667C11.6253 1.66667 13.0003 2.23612 14.1253 3.375C15.2642 4.5 15.8337 5.875 15.8337 7.5C15.8337 8.76389 15.5906 9.81945 15.1045 10.6667C14.6323 11.5 14.0837 12.3264 13.4587 13.1458C12.7087 14.1458 12.1392 14.9792 11.7503 15.6458C11.3753 16.2986 11.0628 16.9931 10.8128 17.7292C10.7434 17.9236 10.6323 18.0764 10.4795 18.1875C10.3406 18.2847 10.1809 18.3333 10.0003 18.3333ZM10.0003 15.3542C10.2364 14.8819 10.5003 14.4167 10.792 13.9583C11.0975 13.5 11.542 12.8889 12.1253 12.125C12.7225 11.3472 13.2087 10.6319 13.5837 9.97917C13.9725 9.3125 14.167 8.48611 14.167 7.5C14.167 6.34723 13.7573 5.36806 12.9378 4.56251C12.1323 3.74306 11.1531 3.33334 10.0003 3.33334C8.84755 3.33334 7.86144 3.74306 7.04199 4.56251C6.23644 5.36806 5.83366 6.34723 5.83366 7.5C5.83366 8.48611 6.02116 9.3125 6.39616 9.97917C6.78505 10.6319 7.2781 11.3472 7.87533 12.125C8.45866 12.8889 8.89616 13.5 9.18783 13.9583C9.49338 14.4167 9.76421 14.8819 10.0003 15.3542ZM10.0003 9.58334C10.5837 9.58334 11.0767 9.38195 11.4795 8.97917C11.8823 8.57639 12.0837 8.08334 12.0837 7.5C12.0837 6.91667 11.8823 6.42362 11.4795 6.02084C11.0767 5.61806 10.5837 5.41667 10.0003 5.41667C9.41699 5.41667 8.92394 5.61806 8.52116 6.02084C8.11838 6.42362 7.91699 6.91667 7.91699 7.5C7.91699 8.08334 8.11838 8.57639 8.52116 8.97917C8.92394 9.38195 9.41699 9.58334 10.0003 9.58334Z" fill="#1D1B20"/>
</svg>
