<svg width="20" height="20" viewBox="0 0 20 20" fill="none" xmlns="http://www.w3.org/2000/svg">
<path d="M3.33366 16.6667C2.87533 16.6667 2.47949 16.5069 2.14616 16.1875C1.82671 15.8542 1.66699 15.4583 1.66699 15V5C1.66699 4.54167 1.82671 4.15278 2.14616 3.83334C2.47949 3.5 2.87533 3.33334 3.33366 3.33334H16.667C17.1253 3.33334 17.5142 3.5 17.8337 3.83334C18.167 4.15278 18.3337 4.54167 18.3337 5V15C18.3337 15.4583 18.167 15.8542 17.8337 16.1875C17.5142 16.5069 17.1253 16.6667 16.667 16.6667H3.33366ZM10.0003 10.8333L16.667 6.66667V5L10.0003 9.16667L3.33366 5V6.66667L10.0003 10.8333Z" fill="#1D1B20"/>
</svg>
