<svg width="20" height="20" viewBox="0 0 20 20" fill="none" xmlns="http://www.w3.org/2000/svg">
<path d="M4.99967 19.1667C4.54134 19.1667 4.14898 19.0035 3.82259 18.6771C3.4962 18.3507 3.33301 17.9583 3.33301 17.5V2.49999C3.33301 2.04166 3.4962 1.6493 3.82259 1.32291C4.14898 0.996523 4.54134 0.833328 4.99967 0.833328H13.333C13.7913 0.833328 14.1837 0.996523 14.5101 1.32291C14.8365 1.6493 14.9997 2.04166 14.9997 2.49999V5.83333H13.333V4.99999H4.99967V15H13.333V14.1667H14.9997V17.5C14.9997 17.9583 14.8365 18.3507 14.5101 18.6771C14.1837 19.0035 13.7913 19.1667 13.333 19.1667H4.99967ZM4.99967 16.6667V17.5H13.333V16.6667H4.99967ZM12.458 13.3333L8.91634 9.79166L10.083 8.62499L12.458 11L17.1663 6.29166L18.333 7.45833L12.458 13.3333ZM4.99967 3.33333H13.333V2.49999H4.99967V3.33333Z" fill="#1D1B20"/>
</svg>
